<svg width="115" height="110" viewBox="0 0 115 110" fill="none" xmlns="http://www.w3.org/2000/svg">
<g clip-path="url(#clip0_237_251)">
<path d="M108.021 86.8748V81.6665L113.75 77.4998C114.271 76.979 114.792 76.4582 114.271 75.9373L109.063 67.0832C109.063 66.5623 108.021 66.5623 107.5 66.5623L101.25 69.1665C99.6877 68.1248 98.1252 67.0832 96.5627 66.5623L95.521 59.7915C95.521 59.2707 95.0002 58.7498 94.4793 58.7498H84.0627C83.021 58.7498 82.5002 59.2707 82.5002 59.7915L81.4585 66.5623C79.896 67.604 78.8543 68.1248 77.2918 69.1665L71.0418 66.5623C70.521 66.5623 70.0002 66.5623 69.4793 67.0832L64.271 75.9373C64.271 76.4582 64.271 76.979 64.7918 77.4998L70.521 81.6665V86.8748L64.7918 91.0415C64.271 91.5623 63.7502 92.0832 64.271 92.604L69.4793 101.458C70.0002 101.979 70.521 101.979 71.0418 101.979L77.2918 99.3748C78.3335 100.417 79.896 101.458 81.4585 101.979L82.5002 108.75C83.021 109.271 83.5418 109.792 84.0627 109.792H94.4793C95.0002 109.792 95.521 109.271 95.521 108.75L96.5627 101.979C98.1252 100.937 99.1668 100.417 100.729 99.3748L106.979 101.458C107.5 101.458 108.021 101.458 108.542 100.937L113.75 92.0832C114.271 91.5623 114.271 91.0415 113.75 91.0415L108.021 86.8748ZM88.7502 91.5623C84.5835 91.5623 80.9377 87.9165 80.9377 83.7498C80.9377 79.5832 84.5835 75.9373 88.7502 75.9373C92.9168 75.9373 96.5627 79.5832 96.5627 83.7498C96.5627 87.9165 92.9168 91.5623 88.7502 91.5623ZM59.0627 104.583H10.6252C4.896 104.583 0.208496 99.8957 0.208496 94.1665V10.8332C0.208496 5.104 4.896 0.416504 10.6252 0.416504H104.375C110.104 0.416504 114.792 5.104 114.792 10.8332V58.229C111.667 55.104 108.021 52.4998 104.375 50.9373V21.2498H10.6252V94.1665H53.8543C54.896 97.8123 56.4585 101.458 59.0627 104.583Z" fill="url(#paint0_linear_237_251)"/>
</g>
<defs>
<linearGradient id="paint0_linear_237_251" x1="9.80279" y1="0.96475" x2="114.518" y2="109.517" gradientUnits="userSpaceOnUse">
<stop stop-color="#6C30C3"/>
<stop offset="1" stop-color="#5E60CE"/>
</linearGradient>
<clipPath id="clip0_237_251">
<rect width="115" height="110" fill="white"/>
</clipPath>
</defs>
</svg>
