<svg width="27" height="27" viewBox="0 0 27 27" fill="none" xmlns="http://www.w3.org/2000/svg">
<path d="M21.9375 6.1875L21.4852 13.5067M5.0625 6.1875L5.74313 17.4656C5.91638 20.3535 6.00413 21.7969 6.72638 22.8364C7.083 23.3494 7.54312 23.7836 8.07637 24.1088C8.83125 24.57 9.76612 24.7084 11.25 24.75M22.5 16.875L14.625 24.75M22.5 24.75L14.625 16.875M3.375 6.1875H23.625M18.063 6.1875L17.2946 4.6035C16.785 3.5505 16.5296 3.02513 16.0898 2.69663C15.992 2.62386 15.8886 2.55914 15.7804 2.50312C15.2933 2.25 14.7082 2.25 13.5394 2.25C12.3401 2.25 11.7405 2.25 11.2444 2.51325C11.1347 2.57199 11.0301 2.63972 10.9316 2.71575C10.4872 3.05663 10.2386 3.60225 9.74138 4.69238L9.05963 6.1875" stroke="white" stroke-width="1.5" stroke-linecap="round" stroke-linejoin="round"/>
</svg>
