<svg width="22" height="22" viewBox="0 0 22 22" fill="none" xmlns="http://www.w3.org/2000/svg">
<path d="M16.1231 20.1991H3.042C2.69507 20.1991 2.36234 20.0612 2.11702 19.8159C1.87171 19.5706 1.73389 19.2379 1.73389 18.8909V14.9666C1.73389 14.6197 1.87171 14.287 2.11702 14.0416C2.36234 13.7963 2.69507 13.6585 3.042 13.6585H16.1231C16.47 13.6585 16.8028 13.7963 17.0481 14.0416C17.2934 14.287 17.4312 14.6197 17.4312 14.9666V18.8909C17.4312 19.2379 17.2934 19.5706 17.0481 19.8159C16.8028 20.0612 16.47 20.1991 16.1231 20.1991ZM3.042 14.9666H3.04069L3.042 18.8909H16.1231V14.9666H3.042ZM20.0474 2.80772L19.1252 1.8855L16.7772 4.23356L14.4291 1.8855L13.5069 2.80772L15.855 5.15578L13.5069 7.50384L14.4291 8.42606L16.7772 6.078L19.1252 8.42606L20.0474 7.50384L17.6994 5.15578L20.0474 2.80772Z" fill="white"/>
<path d="M3.042 9.73416V5.80982H12.1988V4.50171H3.042C2.69507 4.50171 2.36234 4.63953 2.11702 4.88485C1.87171 5.13016 1.73389 5.46289 1.73389 5.80982V9.73416C1.73389 10.0811 1.87171 10.4138 2.11702 10.6591C2.36234 10.9044 2.69507 11.0423 3.042 11.0423H17.4312V9.73416H3.042Z" fill="white"/>
</svg>
