<svg width="20" height="20" viewBox="0 0 20 20" fill="none" xmlns="http://www.w3.org/2000/svg">
<path d="M19.9897 19.2284L18.622 11.4721H19.0839C19.4555 11.4721 19.7549 11.1777 19.7549 10.8122V5.93909C19.7549 5.5736 19.4555 5.27919 19.0839 5.27919H12.7355V0.659898C12.7355 0.294416 12.4361 0 12.0645 0H7.93549C7.56388 0 7.26452 0.294416 7.26452 0.659898V5.27919H0.91613C0.544517 5.27919 0.245162 5.5736 0.245162 5.93909V10.8122C0.245162 11.1777 0.544517 11.4721 0.91613 11.4721H1.37807L0.0103226 19.2284C0.00258069 19.2665 0 19.3046 0 19.3401C0 19.7056 0.299355 20 0.670968 20H19.3291C19.3678 20 19.4065 19.9975 19.4426 19.9898C19.8091 19.9289 20.0542 19.5863 19.9897 19.2284ZM2.05161 7.05584H9.07098V1.77665H10.929V7.05584H17.9484V9.69543H2.05161V7.05584ZM14.129 18.2234V14.264C14.129 14.1523 14.0361 14.0609 13.9226 14.0609H12.6839C12.5703 14.0609 12.4774 14.1523 12.4774 14.264V18.2234H7.52259V14.264C7.52259 14.1523 7.42968 14.0609 7.31614 14.0609H6.07743C5.96388 14.0609 5.87097 14.1523 5.87097 14.264V18.2234H2.02065L3.18452 11.6244H16.8129L17.9768 18.2234H14.129Z" fill="#F4F4F4"/>
</svg>
