<svg width="40" height="40" viewBox="0 0 40 40" fill="none" xmlns="http://www.w3.org/2000/svg">
<path d="M14.0234 18.0467H23.4267C23.6456 18.0467 23.8623 18.0898 24.0645 18.1735C24.2667 18.2573 24.4505 18.3801 24.6052 18.5348C24.76 18.6896 24.8827 18.8733 24.9665 19.0755C25.0503 19.2777 25.0934 19.4945 25.0934 19.7133C25.0934 19.9322 25.0503 20.1489 24.9665 20.3511C24.8827 20.5533 24.76 20.7371 24.6052 20.8918C24.4505 21.0466 24.2667 21.1694 24.0645 21.2531C23.8623 21.3369 23.6456 21.38 23.4267 21.38H14.0234L15.8934 23.25C16.2059 23.5627 16.3814 23.9868 16.3812 24.4289C16.3811 24.871 16.2053 25.295 15.8925 25.6075C15.5798 25.92 15.1557 26.0955 14.7136 26.0953C14.2715 26.0952 13.8476 25.9194 13.535 25.6067L8.82171 20.8933C8.66615 20.7389 8.54269 20.5552 8.45844 20.3528C8.37419 20.1504 8.33081 19.9334 8.33081 19.7142C8.33081 19.495 8.37419 19.2779 8.45844 19.0755C8.54269 18.8732 8.66615 18.6895 8.82171 18.535L13.5334 13.8217C13.8459 13.5089 14.2698 13.3332 14.712 13.333C15.1541 13.3328 15.5781 13.5083 15.8909 13.8208C16.2036 14.1333 16.3794 14.5573 16.3795 14.9994C16.3797 15.4415 16.2042 15.8656 15.8917 16.1783L14.0234 18.0467ZM30 5C30.4421 5 30.866 5.17559 31.1786 5.48816C31.4911 5.80072 31.6667 6.22464 31.6667 6.66667V33.3333C31.6667 33.7754 31.4911 34.1993 31.1786 34.5118C30.866 34.8244 30.4421 35 30 35C29.558 35 29.1341 34.8244 28.8215 34.5118C28.509 34.1993 28.3334 33.7754 28.3334 33.3333V6.66667C28.3334 6.22464 28.509 5.80072 28.8215 5.48816C29.1341 5.17559 29.558 5 30 5Z" fill="white"/>
</svg>
