<svg width="23" height="23" viewBox="0 0 23 23" fill="none" xmlns="http://www.w3.org/2000/svg">
<path d="M19.4062 10.0626V18.6876C19.4062 19.0688 19.2548 19.4345 18.9852 19.704C18.7156 19.9736 18.35 20.1251 17.9688 20.1251H5.03125C4.65 20.1251 4.28437 19.9736 4.01478 19.704C3.7452 19.4345 3.59375 19.0688 3.59375 18.6876V10.0626C3.59375 9.68133 3.7452 9.3157 4.01478 9.04611C4.28437 8.77653 4.65 8.62508 5.03125 8.62508H7.1875C7.37812 8.62508 7.56094 8.7008 7.69573 8.83559C7.83052 8.97039 7.90625 9.1532 7.90625 9.34383C7.90625 9.53445 7.83052 9.71727 7.69573 9.85206C7.56094 9.98685 7.37812 10.0626 7.1875 10.0626H5.03125V18.6876H17.9688V10.0626H15.8125C15.6219 10.0626 15.4391 9.98685 15.3043 9.85206C15.1695 9.71727 15.0938 9.53445 15.0938 9.34383C15.0938 9.1532 15.1695 8.97039 15.3043 8.83559C15.4391 8.7008 15.6219 8.62508 15.8125 8.62508H17.9688C18.35 8.62508 18.7156 8.77653 18.9852 9.04611C19.2548 9.3157 19.4062 9.68133 19.4062 10.0626ZM8.41477 6.25859L10.7812 3.89121V12.2188C10.7812 12.4095 10.857 12.5923 10.9918 12.7271C11.1266 12.8619 11.3094 12.9376 11.5 12.9376C11.6906 12.9376 11.8734 12.8619 12.0082 12.7271C12.143 12.5923 12.2188 12.4095 12.2188 12.2188V3.89121L14.5852 6.25859C14.7201 6.39346 14.903 6.46923 15.0938 6.46923C15.2845 6.46923 15.4674 6.39346 15.6023 6.25859C15.7371 6.12373 15.8129 5.94081 15.8129 5.75008C15.8129 5.55935 15.7371 5.37643 15.6023 5.24156L12.0085 1.64781C11.9418 1.58098 11.8625 1.52797 11.7752 1.4918C11.688 1.45563 11.5945 1.43701 11.5 1.43701C11.4055 1.43701 11.312 1.45563 11.2248 1.4918C11.1375 1.52797 11.0582 1.58098 10.9915 1.64781L7.39773 5.24156C7.26287 5.37643 7.1871 5.55935 7.1871 5.75008C7.1871 5.94081 7.26287 6.12373 7.39773 6.25859C7.5326 6.39346 7.71552 6.46923 7.90625 6.46923C8.09698 6.46923 8.2799 6.39346 8.41477 6.25859Z" fill="white"/>
</svg>
