<svg width="31" height="31" viewBox="0 0 31 31" fill="none" xmlns="http://www.w3.org/2000/svg">
<g clip-path="url(#clip0_40_108)">
<path d="M28.1758 17.6282C28.4636 17.6282 28.7396 17.7425 28.9431 17.9459C29.1465 18.1494 29.2608 18.4254 29.2608 18.7132V27.8179C29.3027 29.0765 29.1508 29.9026 28.5881 30.4219C28.0642 30.9039 27.3047 31.0419 26.3205 30.9892H4.87314C3.87494 30.9396 3.09994 30.535 2.74034 29.7182C2.50164 29.1803 2.39004 28.5448 2.39004 27.8148V18.7116C2.39004 18.4238 2.50436 18.1479 2.70783 17.9444C2.91131 17.7409 3.18728 17.6266 3.47504 17.6266C3.7628 17.6266 4.03878 17.7409 4.24225 17.9444C4.44573 18.1479 4.56004 18.4238 4.56004 18.7116V27.8148C4.56211 28.1754 4.59828 28.4658 4.66854 28.6859L4.72434 28.8378L4.71969 28.8223C4.72124 28.8021 4.76619 28.8099 4.92429 28.8192H26.3763C26.756 28.8409 26.9978 28.8191 27.0831 28.8176L27.0893 28.8161C27.0691 28.7339 27.1079 28.3976 27.0893 27.852V18.7116C27.0893 18.569 27.1174 18.4278 27.172 18.296C27.2267 18.1643 27.3067 18.0446 27.4076 17.9438C27.5085 17.8431 27.6283 17.7632 27.7602 17.7087C27.892 17.6543 28.0332 17.6264 28.1758 17.6266M16.1726 0C16.5818 0 16.9476 0.1612 17.2917 0.46035L30.6605 13.0758C30.7659 13.1732 30.851 13.2906 30.9107 13.4211C30.9705 13.5517 31.0037 13.6927 31.0085 13.8362C31.0134 13.9797 30.9897 14.1227 30.9388 14.2569C30.888 14.3912 30.811 14.514 30.7124 14.6183C30.6137 14.7226 30.4954 14.8062 30.3642 14.8645C30.2329 14.9227 30.0915 14.9543 29.948 14.9574C29.8044 14.9606 29.6617 14.9352 29.5281 14.8828C29.3944 14.8304 29.2725 14.752 29.1694 14.6522L16.123 2.33895L1.79484 14.6847C1.57697 14.8728 1.29331 14.9666 1.00626 14.9455C0.71921 14.9244 0.452291 14.7902 0.264219 14.5723C0.0761473 14.3545 -0.0176708 14.0708 0.00340362 13.7837C0.024478 13.4967 0.158719 13.2298 0.376594 13.0417L15.0179 0.42935L15.1512 0.33015C15.4829 0.12245 15.8146 0.00155 16.1742 0.00155" fill="white"/>
</g>
<defs>
<clipPath id="clip0_40_108">
<rect width="31" height="31" fill="white"/>
</clipPath>
</defs>
</svg>
