<svg width="42" height="42" viewBox="0 0 42 42" fill="none" xmlns="http://www.w3.org/2000/svg">
<g clip-path="url(#clip0_558_197)">
<path d="M21 0C9.40209 0 0 9.40209 0 21C0 32.5986 9.40209 42 21 42C32.5986 42 42 32.5986 42 21C42 9.40209 32.5986 0 21 0ZM21 39.4163C10.8682 39.4163 2.625 31.1318 2.625 20.9999C2.625 10.8681 10.8682 2.62492 21 2.62492C31.1318 2.62492 39.375 10.8681 39.375 20.9999C39.375 31.1317 31.1318 39.4163 21 39.4163ZM30.1875 19.6875H22.3125V11.8125C22.3125 11.088 21.7245 10.5 21 10.5C20.2755 10.5 19.6875 11.088 19.6875 11.8125V19.6875H11.8125C11.088 19.6875 10.5 20.2755 10.5 21C10.5 21.7245 11.088 22.3125 11.8125 22.3125H19.6875V30.1875C19.6875 30.912 20.2755 31.5 21 31.5C21.7245 31.5 22.3125 30.912 22.3125 30.1875V22.3125H30.1875C30.912 22.3125 31.5 21.7245 31.5 21C31.5 20.2755 30.912 19.6875 30.1875 19.6875Z" fill="white"/>
</g>
<defs>
<clipPath id="clip0_558_197">
<rect width="42" height="42" fill="white"/>
</clipPath>
</defs>
</svg>
