<svg width="32" height="32" viewBox="0 0 32 32" fill="none" xmlns="http://www.w3.org/2000/svg">
<path d="M16 18.9998C18.2091 18.9998 20 17.2089 20 14.9998C20 12.7906 18.2091 10.9998 16 10.9998C13.7909 10.9998 12 12.7906 12 14.9998C12 17.2089 13.7909 18.9998 16 18.9998Z" stroke="white" stroke-width="1.5"/>
<path d="M18.3534 1.86917C17.8641 1.6665 17.2428 1.6665 16.0001 1.6665C14.7574 1.6665 14.1361 1.6665 13.6468 1.86917C13.323 2.00319 13.0288 2.1997 12.7811 2.44747C12.5333 2.69524 12.3368 2.98941 12.2028 3.31317C12.0801 3.6105 12.0308 3.9585 12.0121 4.46384C12.0034 4.82908 11.9022 5.18614 11.718 5.50164C11.5338 5.81714 11.2726 6.08076 10.9588 6.26784C10.6399 6.4462 10.2809 6.54073 9.91549 6.5426C9.55008 6.54447 9.19017 6.4536 8.86945 6.2785C8.42145 6.04117 8.09745 5.9105 7.77611 5.86784C7.0752 5.77566 6.36638 5.96558 5.80545 6.39584C5.38678 6.71984 5.07478 7.25717 4.45345 8.33317C3.83211 9.40917 3.52011 9.9465 3.45211 10.4732C3.40629 10.8204 3.42934 11.1733 3.51993 11.5117C3.61053 11.8501 3.7669 12.1673 3.98011 12.4452C4.17745 12.7012 4.45345 12.9158 4.88145 13.1852C5.51211 13.5812 5.91745 14.2558 5.91745 14.9998C5.91745 15.7438 5.51211 16.4185 4.88145 16.8132C4.45345 17.0838 4.17611 17.2985 3.98011 17.5545C3.7669 17.8324 3.61053 18.1496 3.51993 18.488C3.42934 18.8263 3.40629 19.1792 3.45211 19.5265C3.52145 20.0518 3.83211 20.5905 4.45211 21.6665C5.07478 22.7425 5.38545 23.2798 5.80545 23.6038C6.08336 23.817 6.40056 23.9734 6.73892 24.064C7.07728 24.1546 7.43018 24.1777 7.77745 24.1318C8.09745 24.0892 8.42145 23.9585 8.86945 23.7212C9.19017 23.5461 9.55008 23.4552 9.91549 23.4571C10.2809 23.4589 10.6399 23.5535 10.9588 23.7318C11.6028 24.1052 11.9854 24.7918 12.0121 25.5358C12.0308 26.0425 12.0788 26.3892 12.2028 26.6865C12.3368 27.0103 12.5333 27.3044 12.7811 27.5522C13.0288 27.8 13.323 27.9965 13.6468 28.1305C14.1361 28.3332 14.7574 28.3332 16.0001 28.3332C17.2428 28.3332 17.8641 28.3332 18.3534 28.1305C18.6772 27.9965 18.9714 27.8 19.2191 27.5522C19.4669 27.3044 19.6634 27.0103 19.7974 26.6865C19.9201 26.3892 19.9694 26.0425 19.9881 25.5358C20.0148 24.7918 20.3974 24.1038 21.0414 23.7318C21.3604 23.5535 21.7193 23.4589 22.0847 23.4571C22.4501 23.4552 22.81 23.5461 23.1308 23.7212C23.5788 23.9585 23.9028 24.0892 24.2228 24.1318C24.57 24.1777 24.9229 24.1546 25.2613 24.064C25.5997 23.9734 25.9169 23.817 26.1948 23.6038C26.6148 23.2812 26.9254 22.7425 27.5468 21.6665C28.1681 20.5905 28.4801 20.0532 28.5481 19.5265C28.5939 19.1792 28.5709 18.8263 28.4803 18.488C28.3897 18.1496 28.2333 17.8324 28.0201 17.5545C27.8228 17.2985 27.5468 17.0838 27.1188 16.8145C26.8067 16.6244 26.5479 16.3582 26.3667 16.0408C26.1856 15.7234 26.0878 15.3653 26.0828 14.9998C26.0828 14.2558 26.4881 13.5812 27.1188 13.1865C27.5468 12.9158 27.8241 12.7012 28.0201 12.4452C28.2333 12.1673 28.3897 11.8501 28.4803 11.5117C28.5709 11.1733 28.5939 10.8204 28.5481 10.4732C28.4788 9.94784 28.1681 9.40917 27.5481 8.33317C26.9254 7.25717 26.6148 6.71984 26.1948 6.39584C25.9169 6.18262 25.5997 6.02625 25.2613 5.93566C24.9229 5.84506 24.57 5.82202 24.2228 5.86784C23.9028 5.9105 23.5788 6.04117 23.1294 6.2785C22.8089 6.45336 22.4492 6.5441 22.0841 6.54223C21.7189 6.54037 21.3602 6.44596 21.0414 6.26784C20.7276 6.08076 20.4664 5.81714 20.2822 5.50164C20.098 5.18614 19.9968 4.82908 19.9881 4.46384C19.9694 3.95717 19.9214 3.6105 19.7974 3.31317C19.6634 2.98941 19.4669 2.69524 19.2191 2.44747C18.9714 2.1997 18.6772 2.00319 18.3534 1.86917Z" stroke="white" stroke-width="1.5"/>
</svg>
