<svg width="115" height="101" viewBox="0 0 115 101" fill="none" xmlns="http://www.w3.org/2000/svg">
<path d="M106.955 77.75V93.375H8.04479V77.75H-0.197754V93.375L-0.164784 93.3555C-0.170261 95.4255 0.691208 97.4129 2.23045 98.8813C3.76969 100.35 5.86088 101.179 8.04479 101.188H106.955C109.141 101.188 111.238 100.364 112.784 98.8993C114.329 97.4341 115.198 95.447 115.198 93.375V77.75H106.955ZM105.307 41.0312L90.4703 55.0938V-0.375H82.2277V55.0938L67.3911 41.0312L61.6213 46.5L86.349 69.9375L111.077 46.5L105.307 41.0312ZM28.6512 -0.375L3.92352 23.0625L9.6933 28.5312L24.5299 14.4688V69.9375H32.7724V14.4688L47.609 28.5312L53.3788 23.0625L28.6512 -0.375Z" fill="url(#paint0_linear_237_254)"/>
<defs>
<linearGradient id="paint0_linear_237_254" x1="-0.61687" y1="-0.110169" x2="109.867" y2="107.489" gradientUnits="userSpaceOnUse">
<stop stop-color="#7B30C3"/>
<stop offset="1" stop-color="#5E60CE"/>
</linearGradient>
</defs>
</svg>
