<svg width="32" height="32" viewBox="0 0 32 32" fill="none" xmlns="http://www.w3.org/2000/svg">
<path d="M16.5312 22.0469C16.375 22.526 16.25 23.0104 16.1562 23.5C16.0625 23.9896 16.0104 24.4896 16 25V25.1875C16 25.25 16.0052 25.3177 16.0156 25.3906L9.42188 32H4.89062L10.8906 20H3.875L13.875 0H25.1094L19.1094 12H29.4219L25.3906 16.0156H25.2344C24.6719 16.0156 24.1354 16.0573 23.625 16.1406C23.1146 16.224 22.5885 16.3542 22.0469 16.5312L24.5781 14H15.875L21.875 2H15.1094L7.10938 18H14.125L8.125 30H8.57812L16.5312 22.0469ZM29.9062 24.0469C29.9688 24.3594 30 24.6771 30 25C30 25.3229 29.9688 25.6406 29.9062 25.9531L31.8438 26.75L31.0781 28.6094L29.1406 27.7969C28.776 28.3281 28.3281 28.776 27.7969 29.1406L28.6094 31.0781L26.75 31.8438L25.9531 29.9062C25.6406 29.9688 25.3229 30 25 30C24.6771 30 24.3594 29.9688 24.0469 29.9062L23.25 31.8438L21.3906 31.0781L22.2031 29.1406C21.6719 28.776 21.224 28.3281 20.8594 27.7969L18.9219 28.6094L18.1562 26.75L20.0938 25.9531C20.0312 25.6406 20 25.3229 20 25C20 24.6771 20.0312 24.3594 20.0938 24.0469L18.1562 23.25L18.9219 21.3906L20.8594 22.2031C21.224 21.6719 21.6719 21.224 22.2031 20.8594L21.3906 18.9219L23.25 18.1562L24.0469 20.0938C24.3594 20.0312 24.6771 20 25 20C25.3229 20 25.6406 20.0312 25.9531 20.0938L26.75 18.1562L28.6094 18.9219L27.7969 20.8594C28.3281 21.224 28.776 21.6719 29.1406 22.2031L31.0781 21.3906L31.8438 23.25L29.9062 24.0469ZM25 28C25.4167 28 25.8073 27.9219 26.1719 27.7656C26.5365 27.6094 26.8542 27.3958 27.125 27.125C27.3958 26.8542 27.6094 26.5365 27.7656 26.1719C27.9219 25.8073 28 25.4167 28 25C28 24.5833 27.9219 24.1927 27.7656 23.8281C27.6094 23.4635 27.3958 23.1458 27.125 22.875C26.8542 22.6042 26.5365 22.3906 26.1719 22.2344C25.8073 22.0781 25.4167 22 25 22C24.5833 22 24.1927 22.0781 23.8281 22.2344C23.4635 22.3906 23.1458 22.6042 22.875 22.875C22.6042 23.1458 22.3906 23.4635 22.2344 23.8281C22.0781 24.1927 22 24.5833 22 25C22 25.4167 22.0781 25.8073 22.2344 26.1719C22.3906 26.5365 22.6042 26.8542 22.875 27.125C23.1458 27.3958 23.4635 27.6094 23.8281 27.7656C24.1927 27.9219 24.5833 28 25 28Z" fill="white"/>
</svg>
